# xmcd
#
# Track frame offsets:
#	150
#	14517
#	30911
#	45701
#	62985
#	75451
#	91522
#	105358
#	125014
#	138575
#	151386
#
# Disc length: 2223 seconds
#
# Revision: 1
# Processed by: cddbd v1.5.2PL0 Copyright (c) Steve Scherf et al.
# Submitted via: audiograbber 1.83.01
#
DISCID=8008ad0b
DTITLE=C. W. Stoneking - King Hokum
DYEAR=2008
DGENRE=Blues
TTITLE0=Way Out in the World
TTITLE1=Don't go Dancin
TTITLE2=She's a Bread Baker
TTITLE3=Dodo Blues
TTITLE4=On A Christmas Day
TTITLE5=Charley Bostocks Blues
TTITLE6=Goin The Country
TTITLE7=Bad Luck Everywhere You Go
TTITLE8=Rich Man's Blues
TTITLE9=You took my Thing
TTITLE10=Handyman Blues
EXTD=
EXTT0=
EXTT1=
EXTT2=
EXTT3=
EXTT4=
EXTT5=
EXTT6=
EXTT7=
EXTT8=
EXTT9=
EXTT10=
PLAYORDER=
